<svg width="23" height="23" viewBox="0 0 23 23" fill="none" xmlns="http://www.w3.org/2000/svg">
<path d="M20.5357 0H2.46429C1.81072 0 1.18392 0.256807 0.721773 0.713927C0.259629 1.17105 0 1.79103 0 2.4375L0 20.3125C0 20.959 0.259629 21.579 0.721773 22.0361C1.18392 22.4932 1.81072 22.75 2.46429 22.75H9.5106V15.0155H6.27623V11.375H9.5106V8.60031C9.5106 5.44426 11.4102 3.70094 14.3196 3.70094C15.7129 3.70094 17.1699 3.94672 17.1699 3.94672V7.04437H15.5645C13.9828 7.04437 13.4894 8.01531 13.4894 9.01113V11.375H17.0205L16.4558 15.0155H13.4894V22.75H20.5357C21.1893 22.75 21.8161 22.4932 22.2782 22.0361C22.7404 21.579 23 20.959 23 20.3125V2.4375C23 1.79103 22.7404 1.17105 22.2782 0.713927C21.8161 0.256807 21.1893 0 20.5357 0Z" fill="white"/>
</svg>
