<svg width="24" height="23" viewBox="0 0 24 23" fill="none" xmlns="http://www.w3.org/2000/svg">
<path d="M11.509 5.54404C8.24381 5.54404 5.6101 8.14912 5.6101 11.3788C5.6101 14.6085 8.24381 17.2136 11.509 17.2136C14.7742 17.2136 17.4079 14.6085 17.4079 11.3788C17.4079 8.14912 14.7742 5.54404 11.509 5.54404ZM11.509 15.1722C9.39894 15.1722 7.67394 13.471 7.67394 11.3788C7.67394 9.28662 9.39381 7.58545 11.509 7.58545C13.6242 7.58545 15.344 9.28662 15.344 11.3788C15.344 13.471 13.619 15.1722 11.509 15.1722ZM19.0251 5.30537C19.0251 6.06201 18.409 6.66631 17.6492 6.66631C16.8842 6.66631 16.2733 6.05693 16.2733 5.30537C16.2733 4.55381 16.8893 3.94443 17.6492 3.94443C18.409 3.94443 19.0251 4.55381 19.0251 5.30537ZM22.932 6.68662C22.8447 4.86357 22.4237 3.24873 21.0735 1.91826C19.7284 0.587793 18.0958 0.171387 16.2527 0.0799805C14.3532 -0.0266602 8.65966 -0.0266602 6.7601 0.0799805C4.92215 0.166309 3.28957 0.582715 1.93934 1.91318C0.589119 3.24365 0.17327 4.8585 0.0808594 6.68154C-0.0269531 8.56045 -0.0269531 14.1921 0.0808594 16.071C0.168136 17.894 0.589119 19.5089 1.93934 20.8394C3.28957 22.1698 4.91702 22.5862 6.7601 22.6776C8.65966 22.7843 14.3532 22.7843 16.2527 22.6776C18.0958 22.5913 19.7284 22.1749 21.0735 20.8394C22.4186 19.5089 22.8396 17.894 22.932 16.071C23.0398 14.1921 23.0398 8.56553 22.932 6.68662ZM20.478 18.087C20.0775 19.0823 19.3023 19.8491 18.2909 20.2503C16.7764 20.8444 13.1826 20.7073 11.509 20.7073C9.83533 20.7073 6.23644 20.8394 4.72707 20.2503C3.72082 19.8542 2.94559 19.0874 2.54001 18.087C1.93934 16.589 2.07796 13.0343 2.07796 11.3788C2.07796 9.72334 1.94448 6.16357 2.54001 4.67061C2.94046 3.67529 3.71568 2.9085 4.72707 2.50732C6.24157 1.91318 9.83533 2.05029 11.509 2.05029C13.1826 2.05029 16.7815 1.91826 18.2909 2.50732C19.2972 2.90342 20.0724 3.67021 20.478 4.67061C21.0786 6.16865 20.94 9.72334 20.94 11.3788C20.94 13.0343 21.0786 16.594 20.478 18.087Z" fill="white"/>
</svg>
