<svg width="25" height="22" viewBox="0 0 25 22" fill="none" xmlns="http://www.w3.org/2000/svg">
<path d="M22.4302 5.26266C22.446 5.49362 22.446 5.72462 22.446 5.95557C22.446 13 17.2906 21.1167 7.86802 21.1167C4.96509 21.1167 2.26841 20.2423 0 18.7246C0.412451 18.7741 0.808984 18.7906 1.2373 18.7906C3.63257 18.7906 5.83755 17.9492 7.59834 16.514C5.3458 16.4645 3.45811 14.9302 2.80771 12.8185C3.125 12.868 3.44224 12.901 3.77539 12.901C4.2354 12.901 4.69546 12.835 5.12373 12.7195C2.77603 12.2246 1.01519 10.0799 1.01519 7.48983V7.42386C1.69727 7.81981 2.49048 8.06726 3.33115 8.10022C1.95107 7.14335 1.04692 5.51012 1.04692 3.6624C1.04692 2.67257 1.30068 1.76521 1.74487 0.973324C4.26709 4.20682 8.05835 6.31846 12.3096 6.54946C12.2303 6.15352 12.1827 5.74113 12.1827 5.32868C12.1827 2.3921 14.4669 0 17.3064 0C18.7816 0 20.1141 0.643399 21.05 1.68274C22.208 1.45179 23.3184 1.00633 24.302 0.395941C23.9212 1.63328 23.1122 2.67262 22.0494 3.33247C23.0805 3.21704 24.0799 2.92002 24.9999 2.50763C24.302 3.56342 23.4295 4.50374 22.4302 5.26266Z" fill="white"/>
</svg>
