<svg width="28" height="20" viewBox="0 0 28 20" fill="none" xmlns="http://www.w3.org/2000/svg">
<path d="M26.9218 3.05109C26.6055 1.85011 25.6738 0.904262 24.4908 0.583273C22.3465 0 13.7482 0 13.7482 0C13.7482 0 5.14987 0 3.00553 0.583273C1.82252 0.904312 0.890793 1.85011 0.574562 3.05109C0 5.22793 0 9.7697 0 9.7697C0 9.7697 0 14.3115 0.574562 16.4883C0.890793 17.6893 1.82252 18.5957 3.00553 18.9167C5.14987 19.5 13.7482 19.5 13.7482 19.5C13.7482 19.5 22.3465 19.5 24.4908 18.9167C25.6738 18.5957 26.6055 17.6893 26.9218 16.4883C27.4963 14.3115 27.4963 9.7697 27.4963 9.7697C27.4963 9.7697 27.4963 5.22793 26.9218 3.05109ZM10.936 13.8933V5.64611L18.1225 9.76981L10.936 13.8933Z" fill="white"/>
</svg>
